<svg width="200" height="60" viewBox="0 0 200 60" fill="none" xmlns="http://www.w3.org/2000/svg">
  <!-- Icon -->
  <g transform="translate(0, 10)">
    <!-- Purple section -->
    <path d="M8 4 L32 4 A4 4 0 0 1 36 8 L36 20 A4 4 0 0 1 32 24 L20 24 L8 36 L8 8 A4 4 0 0 1 8 4 Z" fill="#7C3AED"/>
    
    <!-- Yellow section -->
    <path d="M4 16 L20 16 L20 24 L32 24 L20 36 L8 36 L8 20 A4 4 0 0 1 4 16 Z" fill="#F59E0B"/>
    
    <!-- White inner circle -->
    <circle cx="26" cy="14" r="6" fill="white"/>
  </g>
  
  <!-- Text -->
  <g transform="translate(50, 0)">
    <text x="0" y="22" font-family="Arial, sans-serif" font-size="18" font-weight="600" fill="#1E293B">VDigitalize</text>
    <text x="0" y="40" font-family="Arial, sans-serif" font-size="10" font-weight="400" fill="#64748B">Digital Solutions</text>
  </g>
</svg>
